<svg width="339" height="305" viewBox="0 0 339 305" fill="none" xmlns="http://www.w3.org/2000/svg">
<path d="M183.653 155.8C185.879 155.228 188.035 154.652 190.047 154.15C191.841 153.718 194.067 153.146 196.795 152.356C203.835 156.664 211.878 161.828 220.28 167.284C215.178 166.494 210.512 165.634 208.431 165.202C204.267 164.412 187.031 159.388 183.653 155.8ZM172.379 177.401C169.577 176.327 159.74 164.77 161.538 164.412C161.608 164.412 161.682 164.412 161.682 164.342C160.028 161.544 156.724 158.816 154.14 156.302C152.918 156.158 151.7 156.018 150.548 155.8C142.866 171.448 130.152 198.286 124.627 208.906C137.694 197.784 160.102 179.125 172.955 177.545C172.667 177.545 172.523 177.475 172.379 177.401ZM108.827 282.683C109.473 282.971 110.119 283.329 110.765 283.761C112.131 284.695 113.423 285.481 114.645 286.127C119.957 289.073 124.696 290.147 131.806 290.003C134.39 289.933 137.048 289.859 139.274 288.567C142.504 286.629 143.944 282.683 144.804 279.025C148.178 265.172 152.918 251.61 157.876 238.259C140.496 254.696 117.731 276.511 108.827 282.683ZM114.501 81.9532C115.291 81.4513 116.151 80.9493 116.727 80.6613C118.879 79.5133 121.179 78.5793 123.33 77.5055C125.054 76.7155 127.066 75.8514 128.934 75.8514C131.806 75.7815 133.386 79.0813 135.324 80.8053C138.196 83.3892 140.64 85.899 143.154 88.7709C148.754 95.0167 154.93 100.612 160.604 106.64C164.981 111.306 169.293 116.116 174.173 120.35C176.473 122.358 178.411 124.583 180.135 127.093C180.349 127.451 180.711 127.883 181.069 128.315C181.789 129.249 182.505 130.323 182.579 131.113C181.069 131.545 179.489 131.183 177.909 131.327C175.971 131.471 173.959 132.047 172.091 132.475C171.663 132.619 171.157 132.763 170.799 132.981C170.009 132.261 169.149 131.615 168.141 130.969C167.351 130.467 165.915 129.677 164.41 129.249C163.476 128.097 162.472 126.879 161.394 125.801C158.666 123.078 155.934 120.42 153.206 117.692C153.062 117.334 152.774 117.046 152.346 116.902C144.302 109.08 136.258 101.328 128.288 93.5067C125.054 90.2768 122.829 85.6151 118.953 83.1012C117.661 82.1672 116.081 81.7393 114.501 81.9532ZM89.9373 101.616L96.4011 97.6706H96.4752C96.8331 96.5226 97.4791 95.3747 98.1251 94.3708C99.8491 89.203 102.507 82.9572 101.787 77.8634C101.359 77.9334 100.927 78.0074 100.425 78.1514C98.4131 78.7974 96.0432 80.2293 94.6072 81.2373C92.4512 82.7432 91.9492 83.8212 91.9492 86.2611C91.9492 88.9849 92.2373 91.7128 92.0933 94.5107C92.0233 95.9466 91.8052 97.1686 91.2333 98.5305C91.1593 98.6046 90.9453 99.1765 90.6573 99.7525C90.2993 100.543 89.8673 101.472 89.7974 101.69C89.8673 101.69 89.9373 101.69 89.9373 101.616Z" fill="#1586A3"/>
<path d="M166.78 137.643C167.282 138.145 167.64 138.647 167.784 139.293C168.36 141.449 167.57 143.745 165.344 142.741C164.266 142.239 163.69 141.449 163.044 140.585C163.188 140.445 163.402 140.371 163.62 140.227C164.698 139.367 165.558 138.289 166.78 137.643ZM152.56 154.652C151.482 153.36 151.05 152.068 150.692 150.562C149.256 151.71 147.174 153.146 146.314 153.29C146.24 153.29 146.17 153.29 146.17 153.216C145.45 152.5 139.13 146.757 131.016 139.367C130.37 140.013 129.65 140.659 128.86 141.161C127.926 141.807 126.923 142.309 125.775 142.741C124.483 143.169 123.331 143.099 122.183 142.667C122.257 142.955 122.471 143.243 122.759 143.531C124.911 145.827 128.001 147.691 130.942 148.769C134.246 149.916 137.192 152.068 140.496 153.36C143.87 154.726 147.244 155.442 150.622 155.944C151.84 156.088 153.062 156.302 154.21 156.446C153.564 155.8 153.062 155.228 152.56 154.652ZM325.196 269.261C321.32 272.923 316.362 275.865 312.7 279.025C311.626 279.955 310.046 280.963 308.894 280.029C308.322 279.597 308.178 278.951 308.104 278.235C308.104 277.947 308.104 277.659 308.104 277.301C308.178 271.417 307.746 265.748 306.598 260.292C305.376 254.12 303.294 248.236 300.065 242.353C299.344 240.987 298.485 239.695 297.695 238.403C289.005 228.717 280.097 219.818 275.287 217.09C271.193 214.794 258.771 209.194 243.976 202.878C227.028 198.073 178.987 179.841 172.955 177.545C172.667 177.475 172.523 177.401 172.379 177.331C169.577 176.253 159.74 164.7 161.538 164.342C161.608 164.342 161.682 164.342 161.682 164.268C161.682 164.342 161.752 164.342 161.752 164.412C161.394 164.412 162.472 164.77 163.188 164.988C165.772 165.922 169.577 165.49 172.166 164.914C174.963 164.268 179.777 160.68 180.135 157.668C180.423 155.586 179.489 152.644 178.773 150.204C178.629 149.628 178.411 149.057 178.341 148.555C177.983 147.045 177.695 145.609 177.263 144.103C176.473 141.231 175.107 139.153 173.671 136.639C172.737 135.059 171.808 133.911 170.73 132.837C171.157 132.619 171.589 132.405 172.022 132.335C173.889 131.829 175.897 131.327 177.839 131.183C179.419 131.043 180.999 131.401 182.505 130.969C182.361 130.109 181.645 129.105 180.999 128.171C194.713 122.358 208.357 113.816 219.992 106.068C223.44 103.772 230.332 98.9626 243.688 88.339C244.766 88.339 245.844 88.125 246.922 87.7671C249.004 87.1211 251.086 85.8991 253.168 84.3232C253.242 84.8952 253.242 85.4712 253.242 85.9732C253.098 91.285 252.308 97.0247 252.094 102.336C251.95 106.57 251.444 111.236 253.456 115.182C257.192 122.432 264.873 114.75 268.609 111.236C271.551 108.508 274.209 105.422 277.225 102.764C278.303 105.134 279.451 107.504 280.747 109.8C280.887 110.084 281.105 110.372 281.249 110.66C285.343 117.12 293.239 120.062 297.119 127.237C299.558 131.759 302.002 136.351 305.306 140.227C306.31 141.449 307.458 142.667 308.68 143.745C313.564 148.049 322.682 151.208 329.648 149.628C331.59 178.191 332.45 206.828 332.162 235.391C332.236 245.653 334.462 262.086 325.196 269.261ZM240.17 168C239.956 165.704 239.742 163.84 239.668 162.618C239.236 156.232 236.508 149.484 234.714 143.313C234.426 142.239 234.138 141.161 233.924 140.157C226.6 143.169 217.836 145.971 207.785 149.057C203.547 150.349 199.811 151.496 196.725 152.356C193.997 153.146 191.771 153.718 189.973 154.15C187.965 154.652 185.809 155.228 183.583 155.8C186.957 159.318 204.193 164.412 208.357 165.202C210.443 165.634 215.108 166.494 220.206 167.284C226.094 168.218 232.558 169.008 236.15 168.72C237.586 168.646 238.878 168.362 240.17 168ZM147.75 142.095C146.96 140.445 145.952 138.791 145.162 137.141C143.8 134.487 144.372 131.471 144.516 128.603C144.66 126.377 144.228 124.008 144.446 121.786C141.574 118.268 138.628 114.75 135.682 111.306C131.662 106.64 127.499 102.048 123.261 97.5266C121.035 95.1567 118.521 93.0048 116.509 90.4209C116.295 90.137 116.081 89.849 115.863 89.561C114.645 87.981 113.279 86.1172 111.267 85.9732C109.687 85.8991 107.247 86.5451 105.667 86.9071C103.297 88.269 101.429 90.207 99.7792 92.3588C99.3472 92.9349 98.7712 93.6508 98.2692 94.4408C97.6233 95.4447 96.9773 96.5927 96.6193 97.7406C96.6893 97.7406 96.7633 97.7406 96.8333 97.8147L116.509 116.116C116.653 115.972 116.797 115.828 116.941 115.754C118.521 114.462 122.685 111.236 124.627 113.602C125.701 114.894 121.969 119.988 127.569 118.338C128.503 118.054 129.223 116.902 130.44 117.334C131.806 117.766 131.876 119.416 131.876 120.564C131.876 121.926 130.226 126.879 131.593 127.957C133.098 129.105 134.464 126.02 135.612 125.657C138.628 124.798 136.258 129.895 135.9 131.043C135.682 131.829 135.398 132.619 135.036 133.409L150.12 147.403C149.4 145.395 148.54 143.745 147.75 142.095ZM99.0592 110.228C94.3193 105.924 90.9454 102.838 89.9374 101.974C89.8674 101.904 89.8674 101.76 89.8674 101.691L89.9374 101.616L96.4012 97.6707H96.4753C96.5453 97.6707 96.6193 97.6707 96.6893 97.7406L116.365 116.042C114.929 117.334 113.781 118.77 112.275 119.918C110.477 121.21 110.189 120.35 108.609 118.984C107.173 117.692 105.737 116.4 104.375 115.108C103.655 114.392 102.795 113.676 102.005 112.956C101.787 112.742 101.573 112.598 101.429 112.384C100.927 111.952 99.8492 110.73 99.0592 110.228ZM149.976 147.189L134.892 133.195C133.962 135.491 132.666 137.643 130.942 139.367C139.06 146.757 145.38 152.57 146.096 153.216C146.17 153.29 146.24 153.29 146.24 153.29C147.174 153.216 149.186 151.71 150.622 150.562C150.404 149.703 150.26 148.769 150.046 147.835C150.046 147.621 149.976 147.403 149.976 147.189Z" fill="#FBC455"/>
<path d="M33.6387 302.132C29.6189 302.564 25.4509 302.276 21.431 302.708C18.7031 302.992 15.3251 302.992 13.0992 301.272C12.4532 300.77 12.4532 300.338 11.7373 299.98C11.1613 299.692 10.5852 299.836 10.0133 299.548C8.35929 298.902 8.14534 297.684 6.85339 296.606C5.63138 295.602 4.98541 295.458 4.19542 294.31C3.19149 292.805 2.68541 293.088 1.10544 292.084C-0.256456 291.15 -0.186511 290.361 0.389518 288.999C1.24945 287.135 1.82548 286.917 1.53746 284.835C1.10544 281.679 1.82548 278.379 5.56144 280.531C9.36734 282.683 12.6713 283.617 17.1931 283.403C18.9171 283.329 20.497 282.897 21.933 282.037C22.509 281.679 23.011 281.177 23.5829 280.745C23.299 281.823 23.155 282.971 23.0809 284.189C22.9369 292.586 25.023 298.832 33.6387 302.132ZM108.827 282.683C108.251 283.115 107.749 283.403 107.247 283.687C105.449 284.695 103.729 286.057 101.861 287.563C102.149 287.563 103.009 287.637 103.655 287.707C107.103 287.995 111.913 288.711 114.715 286.127C113.493 285.411 112.201 284.621 110.835 283.761C110.119 283.403 109.473 283.041 108.827 282.683ZM253.242 84.4672C253.311 85.0391 253.311 85.6151 253.311 86.1171C253.167 91.4248 252.377 97.1686 252.164 102.48C252.02 106.714 251.518 111.376 253.53 115.326C257.261 122.572 264.947 114.894 268.679 111.376C271.625 108.652 274.283 105.566 277.299 102.908C274.929 97.6706 272.847 92.3588 270.333 87.191C268.251 82.8872 265.305 79.3693 261.857 76.3575C259.343 79.2253 256.327 82.2413 253.242 84.4672ZM253.242 84.4672C256.327 82.1672 259.343 79.2253 261.931 76.3575C253.957 69.1777 243.474 64.372 236.364 56.3323C231.48 50.8065 224.658 46.7867 221.642 39.899C220.708 37.8171 218.844 36.0931 217.548 34.1593C217.264 35.1632 217.046 36.3112 216.902 37.6731C216.688 39.467 216.618 41.2609 216.618 43.0548C216.544 49.3706 217.622 55.6863 219.848 61.6441C221.93 67.2398 225.02 72.4817 228.896 77.0735C231.768 80.5173 238.018 87.911 242.758 88.4829C243.116 88.557 243.474 88.557 243.906 88.557C244.984 88.557 246.058 88.3389 247.136 87.981C249.078 87.2651 251.16 86.043 253.242 84.4672ZM98.1992 94.3708C98.7012 93.5808 99.2731 92.8608 99.7051 92.2888C101.359 90.137 103.223 88.199 105.593 86.833C105.523 86.3311 106.889 85.3971 107.317 85.1132C108.897 83.9611 110.765 83.1753 112.633 82.5293C110.765 81.4513 108.971 80.5173 106.815 79.4434C105.449 78.7234 102.795 77.4314 101.215 77.9334C100.997 78.0074 100.713 78.1515 100.495 78.2214C100.997 78.0774 101.429 77.9334 101.861 77.9334C102.577 82.9572 99.9232 89.203 98.1992 94.3708ZM163.262 165.132C165.846 166.062 169.651 165.634 172.235 165.058C175.037 164.412 179.847 160.824 180.209 157.812C180.493 155.73 179.559 152.788 178.843 150.348C178.699 149.772 178.485 149.201 178.411 148.694C178.053 147.189 177.765 145.753 177.333 144.247C176.543 141.375 175.181 139.293 173.745 136.783C172.811 135.203 171.877 134.055 170.799 132.981C170.009 132.261 169.15 131.615 168.141 130.969C167.352 130.467 165.916 129.677 164.41 129.249C162.398 128.673 160.386 128.673 159.884 130.899C159.094 134.273 164.41 135.347 166.706 137.643C167.207 138.145 167.57 138.647 167.714 139.293C168.285 141.449 167.495 143.745 165.27 142.741C164.192 142.239 163.62 141.449 162.974 140.585C162.756 140.227 162.542 139.939 162.328 139.581C160.102 136.351 158.522 132.981 156.58 129.677C155.576 127.883 154.428 126.019 153.852 124.082C153.35 122.358 153.708 120.852 153.564 119.128C153.494 118.556 153.42 118.124 153.28 117.766C153.136 117.408 152.848 117.12 152.416 116.976C152.202 116.902 151.984 116.832 151.7 116.762C149.614 116.4 149.112 118.626 147.462 119.202C145.664 119.774 144.804 118.7 144.446 121.14C144.446 121.354 144.372 121.642 144.372 121.856C144.228 124.082 144.59 126.447 144.446 128.673C144.302 131.545 143.8 134.557 145.092 137.215C145.882 138.865 146.886 140.515 147.676 142.165C148.466 143.815 149.33 145.469 149.832 147.263C149.902 147.477 149.976 147.69 150.046 147.979C150.26 148.912 150.404 149.842 150.622 150.706C150.91 152.142 151.338 153.504 152.49 154.796C152.992 155.372 153.494 155.944 154.14 156.52C156.724 159.03 160.028 161.758 161.682 164.556C161.682 164.63 161.752 164.63 161.752 164.7C161.464 164.556 162.542 164.914 163.262 165.132ZM125.701 142.667C126.853 142.239 127.856 141.737 128.79 141.091C129.58 140.585 130.296 139.939 130.942 139.293C132.666 137.573 133.888 135.421 134.892 133.121C135.18 132.335 135.468 131.545 135.756 130.755C136.114 129.677 138.484 124.509 135.468 125.373C134.32 125.657 132.954 128.817 131.448 127.669C130.082 126.591 131.732 121.642 131.732 120.276C131.732 119.128 131.662 117.478 130.296 117.046C129.078 116.688 128.358 117.836 127.424 118.054C121.825 119.704 125.631 114.606 124.483 113.314C122.471 111.018 118.377 114.248 116.797 115.47C116.653 115.614 116.509 115.684 116.365 115.828C114.929 117.12 113.781 118.556 112.275 119.704C110.477 120.996 110.189 120.132 108.609 118.77C108.539 118.7 108.539 118.7 108.469 118.626C106.889 117.334 106.025 116.544 104.589 115.038C104.519 114.968 104.519 114.968 104.445 114.894C103.729 114.178 102.865 113.458 102.075 112.742C101.931 112.598 101.787 112.454 101.643 112.384C101.573 112.31 101.573 112.31 101.503 112.24C100.927 111.664 99.8491 110.446 99.0592 110.014C98.8452 109.87 98.7012 109.87 98.4831 109.87C96.3313 110.084 97.9812 114.462 98.5572 115.326C100.569 118.194 103.799 120.564 106.601 122.646C107.893 123.58 109.115 125.443 109.543 126.949C109.831 128.097 109.975 129.249 110.477 130.397C110.979 131.545 111.769 132.475 112.559 133.409C113.567 134.557 114.571 135.705 115.575 136.927C117.299 138.935 119.525 141.593 122.039 142.523C123.261 143.025 124.409 143.169 125.701 142.667Z" fill="#E0CCB7"/>
<path d="M338.193 142.523C336.687 146.757 333.527 148.982 329.791 149.842C322.826 151.422 313.708 148.192 308.824 143.959C307.602 142.885 306.454 141.663 305.45 140.445C302.146 136.495 299.702 131.973 297.262 127.451C293.382 120.276 285.482 117.264 281.393 110.874C281.249 110.59 281.031 110.302 280.887 110.014C279.595 107.718 278.447 105.348 277.369 102.982C274.999 97.7406 272.917 92.4329 270.403 87.2651C268.321 82.9572 265.375 79.4434 261.931 76.4275C253.957 69.2518 243.474 64.442 236.364 56.4064C231.48 50.8806 224.658 46.8607 221.642 39.969C220.782 37.9611 218.984 36.3112 217.692 34.4432C217.622 34.3733 217.478 34.3733 217.478 34.4432C217.19 35.3772 217.046 36.4552 216.902 37.7471C216.688 39.5411 216.618 41.335 216.618 43.1289C215.038 39.825 213.886 35.6652 213.598 32.0033C213.24 27.4115 216.474 23.4657 220.206 20.3799C220.424 20.0919 220.564 19.8038 220.782 19.5899C221.14 19.0879 221.498 18.6559 221.86 18.2979C225.02 14.8541 229.04 12.0521 232.916 9.5423C241.322 3.87252 252.307 -1.43928 262.791 0.354634C277.081 2.79453 285.701 11.5502 291.946 23.4657C298.912 36.6691 303.652 54.7523 308.178 68.8938C310.548 76.2835 315.502 82.0273 319.884 88.125C323.402 93.0048 325.414 98.4606 326.92 104.13C328.788 111.092 329.935 118.412 333.095 124.941C335.823 130.825 340.781 135.347 338.193 142.523Z" fill="#462F21"/>
<path d="M308.104 278.305C301.212 281.247 293.456 283.617 288.86 283.761C278.949 284.119 254.031 277.231 239.524 268.401C225.02 259.576 183.439 217.88 179.563 218.953C178.123 219.385 169.075 227.709 157.876 238.333C140.496 254.696 117.73 276.511 108.827 282.683C108.251 283.115 107.749 283.403 107.247 283.687C105.449 284.695 103.729 286.057 101.861 287.563C93.6031 294.166 82.9013 303.926 58.5558 304.716C46.9941 305.074 39.0943 304.14 33.6384 302.062C25.0227 298.758 22.9366 292.516 23.1547 284.049C23.1547 282.827 23.3687 281.679 23.6567 280.601C25.3807 274.145 31.1245 270.413 35.2184 268.977C49.5821 264.024 108.897 222.257 119.24 213.502C120.746 212.21 122.614 210.63 124.696 208.836C137.768 197.71 160.171 179.051 173.025 177.475C179.057 179.771 227.102 197.998 244.049 202.808C258.841 209.124 271.193 214.72 275.361 217.016C280.171 219.743 289.074 228.643 297.764 238.333C298.624 239.625 299.414 240.917 300.134 242.278C303.364 248.092 305.45 254.05 306.668 260.222C307.746 265.748 308.178 271.417 308.178 277.231C308.104 277.659 308.104 278.017 308.104 278.305ZM105.593 86.833C107.103 86.475 109.617 85.829 111.197 85.899C113.205 86.043 114.571 87.911 115.793 89.4909C116.006 89.7748 116.22 90.1369 116.438 90.3508C118.45 92.9347 120.96 95.0866 123.186 97.4566C127.424 101.974 131.592 106.57 135.612 111.236C138.628 114.68 141.5 118.194 144.372 121.712C144.372 121.498 144.446 121.21 144.446 120.996C144.804 118.556 145.664 119.704 147.462 119.058C149.186 118.482 149.614 116.33 151.7 116.618C151.984 116.688 152.202 116.762 152.416 116.832C144.372 109.01 136.328 101.258 128.358 93.4367C125.128 90.2068 122.902 85.541 119.022 83.0312C117.661 82.0972 116.081 81.6652 114.501 81.8832C113.994 81.9532 113.493 82.0972 112.991 82.2412C112.847 82.3111 112.703 82.3111 112.633 82.3852C110.835 83.1011 108.897 83.8211 107.317 84.9691C106.889 85.397 105.523 86.331 105.593 86.833ZM153.852 124.081C154.428 126.089 155.576 127.883 156.579 129.677C158.522 133.051 160.101 136.425 162.327 139.581C162.541 139.939 162.755 140.227 162.973 140.585C163.117 140.445 163.331 140.371 163.545 140.227C164.697 139.367 165.557 138.363 166.705 137.643C164.335 135.347 159.093 134.273 159.883 130.899C160.385 128.673 162.397 128.673 164.409 129.249C163.475 128.097 162.471 126.879 161.393 125.801C158.666 123.078 155.934 120.42 153.206 117.692C153.35 118.054 153.42 118.556 153.494 119.058C153.708 120.852 153.35 122.357 153.852 124.081ZM5.34308 283.259C5.05506 283.185 4.77116 283.115 4.48315 282.971C4.33914 282.897 4.12519 282.757 3.98118 282.613C3.54916 282.325 3.1912 281.967 2.82912 281.609C2.32715 281.103 2.32715 280.317 2.68511 279.741C3.11714 279.165 3.90712 279.025 4.48315 279.383C4.91517 279.671 5.34308 279.885 5.7751 280.243C5.98905 280.387 6.20712 280.531 6.35113 280.745C6.49514 280.963 6.63503 281.177 6.77903 281.321C7.281 282.325 6.35113 283.543 5.34308 283.259ZM165.055 129.031C164.553 128.529 164.121 128.241 163.475 128.027C163.043 127.883 162.541 127.739 162.109 127.595C161.319 127.381 160.529 127.813 160.241 128.529C159.957 129.249 160.171 130.109 160.891 130.541C161.895 131.113 162.899 131.615 164.051 131.545C165.343 131.471 165.989 130.035 165.055 129.031ZM115.649 116.256C109.617 110.73 102.795 103.986 96.977 98.1725C96.8329 98.0285 97.0469 97.8145 97.1909 97.9585C103.223 103.484 110.333 109.944 116.15 115.754C116.508 116.116 115.937 116.618 115.649 116.256ZM148.968 146.185C144.446 142.165 140.208 138.005 135.826 133.841C135.612 133.627 135.324 133.985 135.538 134.129C137.768 136.425 140.064 138.647 142.29 140.947C144.302 142.955 146.314 145.037 148.68 146.617C148.898 146.756 149.256 146.329 148.968 146.185Z" fill="#1E9CBD"/>
</svg>
