<svg width="213" height="57" viewBox="0 0 213 57" fill="none" xmlns="http://www.w3.org/2000/svg">
<path d="M21.5174 44.502C18.7441 44.502 16.4108 43.8887 14.5174 42.662C12.6241 41.4087 11.2908 39.7153 10.5174 37.582L15.2374 34.822C16.3308 37.6753 18.4774 39.102 21.6774 39.102C23.2241 39.102 24.3574 38.822 25.0774 38.262C25.7974 37.702 26.1574 36.9953 26.1574 36.142C26.1574 35.1553 25.7174 34.3953 24.8374 33.862C23.9574 33.302 22.3841 32.702 20.1174 32.062C18.8641 31.6887 17.7974 31.3153 16.9174 30.942C16.0641 30.5687 15.1974 30.0753 14.3174 29.462C13.4641 28.822 12.8108 28.022 12.3574 27.062C11.9041 26.102 11.6774 24.982 11.6774 23.702C11.6774 21.1687 12.5708 19.1553 14.3574 17.662C16.1708 16.142 18.3441 15.382 20.8774 15.382C23.1441 15.382 25.1308 15.942 26.8374 17.062C28.5708 18.1553 29.9174 19.6887 30.8774 21.662L26.2374 24.342C25.1174 21.942 23.3308 20.742 20.8774 20.742C19.7308 20.742 18.8241 21.0087 18.1574 21.542C17.5174 22.0487 17.1974 22.7153 17.1974 23.542C17.1974 24.422 17.5574 25.142 18.2774 25.702C19.0241 26.2353 20.4374 26.822 22.5174 27.462C23.3708 27.7287 24.0108 27.942 24.4374 28.102C24.8908 28.2353 25.4908 28.462 26.2374 28.782C27.0108 29.0753 27.5974 29.3553 27.9974 29.622C28.4241 29.8887 28.9041 30.2487 29.4374 30.702C29.9708 31.1553 30.3708 31.622 30.6374 32.102C30.9308 32.582 31.1708 33.1687 31.3574 33.862C31.5708 34.5287 31.6774 35.262 31.6774 36.062C31.6774 38.6487 30.7308 40.702 28.8374 42.222C26.9708 43.742 24.5308 44.502 21.5174 44.502ZM45.1046 44.502C42.0913 44.502 39.5713 43.4887 37.5446 41.462C35.5446 39.4353 34.5446 36.9287 34.5446 33.942C34.5446 30.9553 35.5446 28.4487 37.5446 26.422C39.5713 24.3953 42.0913 23.382 45.1046 23.382C47.0513 23.382 48.8246 23.8487 50.4246 24.782C52.0246 25.7153 53.2379 26.9687 54.0646 28.542L49.6246 31.142C49.2246 30.3153 48.6113 29.662 47.7846 29.182C46.9846 28.702 46.0779 28.462 45.0646 28.462C43.5179 28.462 42.2379 28.982 41.2246 30.022C40.2113 31.0353 39.7046 32.342 39.7046 33.942C39.7046 35.5153 40.2113 36.822 41.2246 37.862C42.2379 38.8753 43.5179 39.382 45.0646 39.382C46.1046 39.382 47.0246 39.1553 47.8246 38.702C48.6513 38.222 49.2646 37.5687 49.6646 36.742L54.1446 39.302C53.2646 40.8753 52.0246 42.142 50.4246 43.102C48.8246 44.0353 47.0513 44.502 45.1046 44.502ZM67.9937 23.382C70.1803 23.382 71.9803 24.1153 73.3937 25.582C74.8337 27.0487 75.5537 29.0753 75.5537 31.662V43.942H70.3937V32.302C70.3937 30.9687 70.0337 29.9553 69.3137 29.262C68.5937 28.542 67.6337 28.182 66.4337 28.182C65.1003 28.182 64.0337 28.5953 63.2337 29.422C62.4337 30.2487 62.0337 31.4887 62.0337 33.142V43.942H56.8737V15.942H62.0337V26.182C63.287 24.3153 65.2737 23.382 67.9937 23.382ZM96.9996 41.462C94.9463 43.4887 92.4396 44.502 89.4796 44.502C86.5196 44.502 84.0129 43.4887 81.9596 41.462C79.9329 39.4087 78.9196 36.902 78.9196 33.942C78.9196 30.982 79.9329 28.4887 81.9596 26.462C84.0129 24.4087 86.5196 23.382 89.4796 23.382C92.4396 23.382 94.9463 24.4087 96.9996 26.462C99.0529 28.4887 100.08 30.982 100.08 33.942C100.08 36.902 99.0529 39.4087 96.9996 41.462ZM85.5996 37.902C86.6396 38.942 87.9329 39.462 89.4796 39.462C91.0263 39.462 92.3196 38.942 93.3596 37.902C94.3996 36.862 94.9196 35.542 94.9196 33.942C94.9196 32.342 94.3996 31.022 93.3596 29.982C92.3196 28.942 91.0263 28.422 89.4796 28.422C87.9329 28.422 86.6396 28.942 85.5996 29.982C84.5863 31.022 84.0796 32.342 84.0796 33.942C84.0796 35.542 84.5863 36.862 85.5996 37.902ZM103.71 43.942V14.742H108.87V43.942H103.71ZM130.632 41.462C128.579 43.4887 126.072 44.502 123.112 44.502C120.152 44.502 117.646 43.4887 115.592 41.462C113.566 39.4087 112.552 36.902 112.552 33.942C112.552 30.982 113.566 28.4887 115.592 26.462C117.646 24.4087 120.152 23.382 123.112 23.382C126.072 23.382 128.579 24.4087 130.632 26.462C132.686 28.4887 133.712 30.982 133.712 33.942C133.712 36.902 132.686 39.4087 130.632 41.462ZM119.232 37.902C120.272 38.942 121.566 39.462 123.112 39.462C124.659 39.462 125.952 38.942 126.992 37.902C128.032 36.862 128.552 35.542 128.552 33.942C128.552 32.342 128.032 31.022 126.992 29.982C125.952 28.942 124.659 28.422 123.112 28.422C121.566 28.422 120.272 28.942 119.232 29.982C118.219 31.022 117.712 32.342 117.712 33.942C117.712 35.542 118.219 36.862 119.232 37.902Z" fill="black"/>
<path d="M154.902 23.942V43.942H149.742V28.902H143.862V43.942H138.702V28.902H135.822V23.942H138.702V23.742C138.702 18.1687 141.836 15.382 148.102 15.382C149.516 15.382 151.076 15.5687 152.782 15.942V20.662C150.996 20.4487 149.436 20.342 148.102 20.342C146.662 20.342 145.596 20.5953 144.902 21.102C144.209 21.582 143.862 22.462 143.862 23.742V23.942H154.902ZM170.728 23.382C172.915 23.382 174.715 24.1153 176.128 25.582C177.568 27.0487 178.288 29.0753 178.288 31.662V43.942H173.128V32.302C173.128 30.9687 172.768 29.9553 172.048 29.262C171.328 28.542 170.368 28.182 169.168 28.182C167.835 28.182 166.768 28.5953 165.968 29.422C165.168 30.2487 164.768 31.4887 164.768 33.142V43.942H159.608V23.942H164.768V26.182C166.021 24.3153 168.008 23.382 170.728 23.382ZM197.854 15.942H203.014V43.942H197.854V41.582C196.334 43.5287 194.174 44.502 191.374 44.502C188.681 44.502 186.374 43.4887 184.454 41.462C182.561 39.4087 181.614 36.902 181.614 33.942C181.614 30.982 182.561 28.4887 184.454 26.462C186.374 24.4087 188.681 23.382 191.374 23.382C194.174 23.382 196.334 24.3553 197.854 26.302V15.942ZM188.334 38.022C189.401 39.062 190.734 39.582 192.334 39.582C193.934 39.582 195.254 39.062 196.294 38.022C197.334 36.9553 197.854 35.5953 197.854 33.942C197.854 32.2887 197.334 30.942 196.294 29.902C195.254 28.8353 193.934 28.302 192.334 28.302C190.734 28.302 189.401 28.8353 188.334 29.902C187.294 30.942 186.774 32.2887 186.774 33.942C186.774 35.5953 187.294 36.9553 188.334 38.022Z" fill="#0B4FFF"/>
<path d="M7.5708 13.9393L8.10001 17.7049C9.18956 25.4574 30.066 22.5234 28.9765 14.7709L28.4473 11.0053L7.5708 13.9393Z" fill="#373838"/>
<path d="M34.2758 7.47567L18.7139 17.2861L1.05064 12.1452L16.6126 2.33475L34.2758 7.47567Z" fill="#222222"/>
<path d="M17.5613 9.48595C15.1774 11.0068 9.99012 14.277 9.78419 14.4188C9.68122 14.4898 9.58603 14.6161 9.60938 14.7822L10.1386 18.5478C10.2009 18.9908 10.7546 18.9129 10.6923 18.4699L10.202 14.9813C12.5383 13.5236 17.5673 10.3321 17.7732 10.1903C18.0821 9.97745 17.878 9.32851 17.5613 9.48595" fill="#FFCE31"/>
<path d="M10.5941 19.7825C11.1752 19.7008 11.5627 19.0396 11.4595 18.3056C11.3563 17.5716 10.8017 17.0428 10.2206 17.1245C9.63951 17.2062 9.25208 17.8674 9.35524 18.6014C9.45839 19.3354 10.0131 19.8642 10.5941 19.7825Z" fill="#FFCE31"/>
<path d="M11.4193 25.6523C11.9731 25.5744 12.4325 25.2275 12.3781 24.8399L11.4597 18.3056L9.35547 18.6013L10.2738 25.1356C10.3283 25.5233 10.8656 25.7301 11.4193 25.6523" fill="#FFCE31"/>
<path d="M11.1507 18.5184C11.0953 18.5262 11.1031 18.5816 11.0477 18.5894L12.0128 25.4559C12.0681 25.4481 12.0603 25.3928 12.1157 25.385L11.1507 18.5184ZM10.731 18.7468L10.6203 18.7624L11.5853 25.6289L11.6961 25.6134L10.731 18.7468ZM10.288 18.8091L10.1773 18.8247L11.1423 25.6912L11.2531 25.6756L10.288 18.8091ZM9.82947 18.7606C9.7741 18.7684 9.76631 18.713 9.71094 18.7208L10.6837 25.6427C10.7391 25.6349 10.7469 25.6903 10.8023 25.6825L9.82947 18.7606Z" fill="#594640"/>
</svg>
