<svg width="270" height="317" viewBox="0 0 270 317" fill="none" xmlns="http://www.w3.org/2000/svg">
<path d="M118.76 84.3622C81.4896 87.0814 63.2721 94.2932 53.8045 109.374C44.3407 124.454 57.6401 258.03 82.4846 267.198C107.333 276.369 212.703 249.413 212.703 249.413C212.703 249.413 190.76 99.0175 167.549 91.2132C142.283 82.7254 118.76 84.3622 118.76 84.3622Z" fill="#FBC455"/>
<path d="M195.36 79.6302C223.747 96.0514 263.699 164.657 251.527 188.628C242.139 207.111 211.617 187.955 195.31 165.811C173.88 136.698 182.527 110.441 182.527 110.441L195.36 79.6302Z" fill="#FBC955"/>
<path d="M195.359 79.6304C199.02 81.0583 204.599 93.5223 187.665 120.718C179.436 133.926 180.286 108.067 179.975 103.222C179.667 98.372 185.96 75.9618 195.359 79.6304Z" fill="#AB7D20"/>
<path d="M197.452 84.3319C184.506 77.5834 159.38 84.3053 161.359 92.8577C163.334 101.41 168.886 110.437 171.396 108.99C178.414 97.2706 192.04 101.828 193.495 95.1742L197.452 84.3319Z" fill="#FF9572"/>
<path d="M161.249 78.7797C164.936 85.1674 175.505 89.2537 180.446 86.3978C185.387 83.5458 188.55 82.1786 188.55 82.1786C188.55 82.1786 174.427 79.8506 163.74 73.9832C159.323 71.5641 159.938 76.5125 161.249 78.7797Z" fill="#FF9572"/>
<path d="M165.065 86.4586C165.065 86.4586 151.864 95.4629 149.328 99.4581C146.795 103.449 142.564 109.53 143.908 111.417C145.682 113.916 152.84 106.59 154.652 103.86C156.467 101.129 166.937 94.4376 166.937 94.4376L165.065 86.4586Z" fill="#FF9572"/>
<path d="M180.287 98.9605C180.287 98.9605 173.386 107.752 172.429 109.408C171.468 111.068 172.152 116.965 169.9 116.965C167.644 116.965 167.549 109.651 167.549 107.65C167.549 105.644 170.978 100.123 170.978 100.123L180.287 98.9605Z" fill="#FF9572"/>
<path d="M165.597 93.5224C161.473 94.9313 155.355 103.039 153.566 106.678C151.777 110.316 147.885 117.835 151.227 119.248C154.572 120.657 158.548 112.139 159.623 109.887C160.698 107.635 164.461 103.267 165.878 101.93C167.295 100.597 170.69 97.9961 170.69 97.9961L165.597 93.5224Z" fill="#FF9572"/>
<path d="M160.531 105.314C159.054 109.526 160.033 118.105 162.092 118.796C164.15 119.487 165.874 117.022 165.874 114.896C165.874 112.765 166.186 109.875 166.812 108.155C167.439 106.438 171.126 98.7517 171.126 98.7517C171.126 98.7517 168.339 95.7857 168.054 96.0667C167.769 96.3515 160.531 105.314 160.531 105.314Z" fill="#FF9572"/>
<path d="M198.724 85.213C197.706 84.5408 196.761 84.0547 195.944 83.8496C190.077 82.3685 193.495 95.1743 193.495 95.1743L196.898 101.061C199.583 95.0224 199.696 89.2613 198.724 85.213Z" fill="#FF9572"/>
<path d="M60.519 101.061C46.3423 113.642 -12.4725 223.32 33.9656 242.532C80.4075 261.741 85.2116 107.164 85.2116 107.164C85.2116 107.164 74.8857 88.3043 60.519 101.061Z" fill="#FBC455"/>
<path d="M30.9882 244.264C30.9882 244.264 43.7826 250.405 73.6779 224.349C103.577 198.296 110.022 169.7 110.022 169.7L85.2609 158.649C85.2609 158.649 27.069 190.291 21.0306 206.302C14.9923 222.317 19.5382 236.93 30.9882 244.264Z" fill="#FBC455"/>
<path d="M90.3803 92.7742C85.0293 100.901 103.433 114.254 124.791 110.882C146.153 107.513 150.091 89.9791 139.568 87.3473C129.048 84.7155 129.048 84.7155 113.873 86.3865C98.6972 88.0612 90.3803 92.7742 90.3803 92.7742Z" fill="#FF9572"/>
<path d="M96.3386 91.107C105.233 87.7764 108.085 71.0704 108.085 71.0704L138.273 79.562L132.998 96.9516L96.3386 91.107Z" fill="#FF9572"/>
<path d="M107.033 75.4644C105.821 79.6646 103.463 85.851 99.4526 89.2386C98.6057 89.4892 97.8196 89.7398 97.0867 89.9867C97.6677 90.6361 98.3703 91.2399 99.2286 91.7792C117.306 103.206 131.486 94.2705 137.992 87.7689L107.033 75.4644Z" fill="#F77E56"/>
<path d="M85.2118 128.032L82.6294 115.154C82.6294 115.154 127.427 111.299 136.017 121.811L85.2118 128.032Z" fill="#F7F7F7"/>
<path d="M82.0098 133.132C82.0098 133.132 80.9047 126.509 81.2199 125.996C82.701 123.596 87.8051 122.274 94.9561 121.868C117.173 120.611 136.503 121.712 136.503 121.712L139.871 142.979L88.4355 146.523L82.0098 133.132Z" fill="white"/>
<path d="M136.503 121.694C136.503 121.694 166.326 108.5 177.822 109.192L181.099 113.574L178.323 154.479L140.916 150.712L136.503 121.694Z" fill="white"/>
<path d="M78.9111 164.66C79.4998 159.439 83.9203 154.384 88.2344 149.124C92.5486 143.864 91.7093 140.921 93.8018 140.405C95.8944 139.892 97.3033 147.541 93.3309 153.476C89.3586 159.412 84.5849 162.568 84.5849 162.568L78.9111 164.66Z" fill="#FF926F"/>
<path d="M82.3972 132.836L137.057 124.341L145.351 179.236L104.705 182.274L81.3414 134.868C80.9161 134.009 81.4516 132.984 82.3972 132.836Z" fill="#D14512"/>
<path d="M138.85 177.671C138.633 177.671 138.444 177.519 138.406 177.299L129.675 128.032C129.633 127.785 129.796 127.553 130.043 127.508C130.286 127.462 130.522 127.625 130.567 127.876L139.294 177.14C139.34 177.387 139.177 177.622 138.93 177.664C138.903 177.668 138.877 177.671 138.85 177.671Z" fill="#B83D10"/>
<path d="M134.221 125.176L180.822 112.598C181.327 112.461 181.817 112.849 181.806 113.369L180.549 168.287L142.625 180.083L134.221 125.176Z" fill="#D14512"/>
<path d="M147.676 178.716C147.448 178.716 147.254 178.545 147.227 178.317L141.368 125.917C141.341 125.67 141.52 125.446 141.77 125.419C142.017 125.389 142.241 125.571 142.268 125.818L148.124 178.218C148.154 178.465 147.976 178.689 147.729 178.716C147.71 178.716 147.695 178.716 147.676 178.716Z" fill="#B83D10"/>
<path d="M148.128 28.0427C150.604 27.6553 154.163 29.8998 156.099 36.8571C158.029 43.8183 151.223 72.2819 146.427 78.0012C141.63 83.7281 137.498 83.8041 137.498 83.8041L148.128 28.0427Z" fill="#472809"/>
<path d="M150.285 66.3232C150.285 66.3232 151.474 80.7772 148.975 81.4342C146.472 82.0912 142.625 75.0085 142.625 75.0085L150.285 66.3232Z" fill="#472809"/>
<path d="M108.609 82.847C119.148 93.3856 130.438 93.4577 138.273 87.0244C146.966 79.8886 159.19 45.06 151.557 28.0426C143.916 11.0214 126.394 7.10598 112.057 9.80993C97.7249 12.5101 88.6332 41.8662 91.9182 54.5429C95.207 67.2195 108.609 82.847 108.609 82.847Z" fill="#FF9572"/>
<path d="M152.677 26.0982C145.04 9.077 126.394 7.10601 112.057 9.80996C97.7249 12.5101 88.6332 41.8662 91.9182 54.5429C93.5968 61.0141 92.5183 50.3616 96.3387 55.9024C95.0057 47.4336 92.4537 51.7288 97.0869 42.6067C105.806 25.445 119.292 25.3159 119.292 25.3159C120.663 29.482 147.626 33.5493 154.253 34.662C153.889 32.053 153.608 28.168 152.677 26.0982Z" fill="#472809"/>
<path d="M119.292 25.3159C122.254 30.4465 126.507 33.3214 128.607 32.3833C130.351 31.6086 129.063 29.4819 129.063 29.4819C129.063 29.4819 137.042 36.595 139.131 35.1215C141.831 33.2188 139.636 30.344 139.636 30.344C139.636 30.344 148.788 38.6837 153.649 36.5532C158.51 34.4151 156.099 33.2606 156.099 33.2606L147.235 25.5969L119.292 25.3159Z" fill="#472809"/>
<path d="M130.465 19.9991C127.844 19.9991 123.538 19.456 118.696 12.3164C118.559 12.1113 118.612 11.8303 118.817 11.6897C119.026 11.553 119.307 11.6024 119.448 11.8113C124.479 19.2281 128.657 19.137 131.152 19.0876C131.353 19.08 131.547 19.08 131.725 19.08C131.972 19.08 132.174 19.2813 132.174 19.532C132.174 19.7788 131.972 19.9801 131.725 19.9801C131.551 19.9801 131.368 19.9877 131.171 19.9877C130.951 19.9953 130.719 19.9991 130.465 19.9991Z" fill="#6E441C"/>
<path d="M149.013 27.0173C149.005 27.0173 148.998 27.0173 148.986 27.0173C148.675 26.9983 141.334 26.478 139.67 22.0765C139.583 21.8448 139.701 21.5866 139.932 21.4992C140.168 21.4081 140.426 21.5258 140.514 21.7575C141.976 25.6197 148.975 26.1134 149.043 26.1172C149.294 26.1324 149.48 26.3489 149.465 26.5957C149.449 26.835 149.252 27.0173 149.013 27.0173Z" fill="#6E441C"/>
<path d="M114.541 0.832205C104.044 0.892968 103.175 2.94372 97.0868 10.2391C97.0868 10.2391 86.9356 13.1481 79.3934 24.2715C71.8512 35.3911 77.2629 37.7989 77.2629 37.7989C77.2629 37.7989 65.042 59.4343 70.1233 59.0203C75.2084 58.6064 74.4489 56.848 74.4489 56.848C74.4489 56.848 73.4994 60.7293 75.9527 58.2798C75.9527 58.2798 75.4362 72.7831 79.2757 71.5982C79.2757 71.5982 84.0152 83.3369 91.6258 84.4534C96.9425 85.2319 96.0501 80.8988 96.0501 80.8988C96.0501 80.8988 98.5338 83.804 104.697 80.8494C107.527 79.4936 96.0501 59.2634 96.0501 59.2634C96.0501 59.2634 94.926 45.3866 94.6335 45.9107C90.6346 53.0693 112.198 42.6903 121.833 21.5789C121.833 21.5789 121.893 0.794228 114.541 0.832205Z" fill="#472809"/>
<path d="M88.7094 29.82C88.6904 29.82 88.6715 29.82 88.6525 29.82C88.4018 29.7896 88.2309 29.5617 88.2613 29.3149C88.2689 29.2389 89.2943 21.7727 97.6074 19.1181C97.8429 19.0421 98.0973 19.175 98.1733 19.4105C98.2492 19.6498 98.1163 19.9004 97.8808 19.9802C90.1146 22.46 89.1652 29.3566 89.1576 29.425C89.1272 29.6529 88.9335 29.82 88.7094 29.82Z" fill="#6E441C"/>
<path d="M113.542 1.89933C120.822 -0.774238 131.528 -0.337504 130.412 1.43601C129.295 3.20953 129.295 3.20953 129.295 3.20953C129.295 3.20953 146.84 5.86032 153.517 15.1343C160.197 24.4082 160.36 30.5111 157.797 29.5123C157.797 29.5123 159.528 46.7538 156.433 60.2849C153.338 73.8199 144.06 80.2152 144.06 80.2152C144.06 80.2152 159.012 53.4871 152.563 30.3592C146.115 7.23887 123.743 12.7265 123.743 12.7265L113.542 1.89933Z" fill="#472809"/>
<path d="M156.19 47.7337C156.19 47.7337 158.879 66.3348 155.898 67.3373C152.913 68.3399 151.773 66.3689 151.773 66.3689L156.19 47.7337Z" fill="#472809"/>
<path d="M116.166 50.5553C120.142 51.4401 125.63 51.0452 125.941 47.8969C126.256 44.7524 120.336 46.0968 120.336 46.0968C120.336 46.0968 114.457 47.05 114.241 49.2527C114.161 50.0312 116.166 50.5553 116.166 50.5553Z" fill="#472809"/>
<path d="M139.552 47.6006C137.445 51.2616 141.945 52.3781 145.04 52.587C148.139 52.7997 148.834 51.6072 147.915 50.2172C147 48.8235 140.718 45.5727 139.552 47.6006Z" fill="#472809"/>
<path d="M137.498 58.7166C137.498 58.7166 140.696 59.9204 145.378 58.9634C145.378 58.9634 144.338 61.8572 141.167 61.8572C137.992 61.8572 137.498 58.7166 137.498 58.7166Z" fill="#472809"/>
<path d="M115.642 56.6696C115.642 56.6696 118.756 58.0709 123.492 57.4101C123.492 57.4101 122.265 60.2318 119.102 60.0343C115.939 59.833 115.642 56.6696 115.642 56.6696Z" fill="#472809"/>
<path d="M129.542 81.271C127.612 81.271 126.048 80.8076 124.87 79.8848C122.903 78.3467 122.801 76.1137 122.797 76.0188C122.782 75.6352 123.082 75.3124 123.465 75.2972C123.868 75.2896 124.172 75.582 124.187 75.9656C124.191 76.0378 124.286 77.6746 125.748 78.8063C127.198 79.9304 129.488 80.1734 132.553 79.5354C132.929 79.4557 133.298 79.6949 133.373 80.0747C133.453 80.4469 133.21 80.819 132.834 80.895C131.642 81.1456 130.54 81.271 129.542 81.271Z" fill="#E0551E"/>
<path d="M104.014 176.718C90.9801 183.072 95.4728 181.606 85.9634 183.991C80.0162 185.479 74.5057 175.374 74.7602 172.457C75.5045 163.863 86.5254 157.901 86.5254 157.901C87.6761 158.299 95.993 150.366 97.4058 150.461C109.387 151.266 105.377 176.054 104.014 176.718Z" fill="#FF926F"/>
<path d="M93.8628 153.172C96.3465 150.169 101.166 147.643 107.166 144.294C112.802 141.149 119.231 138.198 120.078 141.639C120.545 143.545 112.301 146.682 109.327 149.717C105.404 153.735 104.082 154.035 104.082 154.035C104.082 154.035 105.032 153.207 109.467 150.131C111.138 148.972 116.353 153.389 113.087 155.759C109.403 158.432 106.558 160.775 106.558 160.775C106.558 160.775 109.354 159.089 110.907 157.836C115.149 154.422 117.515 160.134 112.714 163.35C108.936 165.887 112.908 164.235 113.349 165.671C114.275 168.69 103.239 178.666 103.384 176.505C103.528 174.348 93.8628 153.172 93.8628 153.172Z" fill="#FF926F"/>
<path d="M98.4917 158.231C98.3436 158.231 98.1993 158.163 98.1082 158.03C97.9638 157.821 98.017 157.532 98.2297 157.388L105.502 152.371C105.711 152.227 106.004 152.28 106.148 152.489C106.296 152.702 106.239 152.99 106.03 153.135L98.7538 158.151C98.674 158.208 98.5829 158.231 98.4917 158.231Z" fill="#F77E56"/>
<path d="M102.841 163.385C102.681 163.385 102.525 163.301 102.438 163.153C102.309 162.933 102.389 162.648 102.609 162.519L106.327 160.373C106.547 160.248 106.832 160.32 106.961 160.544C107.086 160.764 107.01 161.049 106.79 161.178L103.072 163.324C103 163.366 102.917 163.385 102.841 163.385Z" fill="#F77E56"/>
<path d="M14.3847 245.468C-9.96981 263.245 -13.8738 310.469 88.3902 312.326C190.658 314.187 205.898 312.531 206.859 308.699C207.816 304.863 212.844 285.469 203.187 274.425C193.533 263.381 112.13 218.196 95.2412 216.799C78.3567 215.409 35.9328 229.741 14.3847 245.468Z" fill="#1E9CBD"/>
<path d="M70.1196 254.73C70.1196 254.73 146.495 244.776 164.583 249.03C182.668 253.283 205.587 277.623 205.587 277.623L70.1196 254.73Z" fill="#1586A3"/>
<path d="M76.53 185.517C76.53 174.337 99.2858 154.479 134.555 170.931C169.824 187.386 242.493 255.79 242.493 261.517C242.493 267.236 233.906 285.636 218.047 282.419C202.184 279.202 98.3895 224.094 87.2053 210.537C74.5363 195.183 76.53 188.069 76.53 185.517Z" fill="#1E9CBD"/>
<path d="M195.72 274.246C195.682 274.246 195.648 274.243 195.618 274.235C194.774 274.045 110.834 255.193 70.1193 255.193C70.0092 255.193 69.8991 255.156 69.8155 255.083C69.7206 255.004 60.3213 247.017 42.419 244.108C42.1684 244.066 41.9975 243.827 42.0392 243.576C42.081 243.322 42.3203 243.151 42.5709 243.193C59.5732 245.958 69.0522 253.268 70.2864 254.267C111.168 254.32 194.976 273.141 195.819 273.331C196.07 273.384 196.229 273.635 196.172 273.886C196.123 274.098 195.929 274.246 195.72 274.246Z" fill="#1586A3"/>
<path d="M205.591 278.09C205.553 278.09 205.515 278.086 205.477 278.075C187.51 273.73 100.63 219.78 96.9426 217.486C96.7223 217.353 96.654 217.065 96.7907 216.848C96.9274 216.628 97.2122 216.563 97.4287 216.7C98.3325 217.258 187.874 272.864 205.697 277.174C205.944 277.235 206.099 277.486 206.039 277.733C205.985 277.945 205.799 278.09 205.591 278.09Z" fill="#1586A3"/>
<path d="M198.659 309.986C198.659 309.986 233.731 313.917 245.861 304.727C252.385 299.786 247.262 286.376 231.483 285.017C215.039 283.6 197.349 282.951 197.349 282.951C191.816 293.368 192.135 299.562 198.659 309.986Z" fill="#FBE0A1"/>
<path d="M237.331 312.421C234.927 308.255 232.345 303.857 231.79 298.988C231.224 294.04 233.146 288.788 235.128 284.329C235.971 282.434 233.176 280.786 232.329 282.693C230.123 287.637 228 293.311 228.517 298.818C229.037 304.358 231.798 309.322 234.532 314.058C235.573 315.865 238.375 314.232 237.331 312.421Z" fill="#D14512"/>
<path d="M226.592 315.52C226.569 315.201 226.314 314.832 225.942 314.87C225.901 314.874 225.859 314.878 225.817 314.886C225.813 314.886 225.813 314.886 225.813 314.886C225.08 314.206 224.199 311.79 223.971 311.247C223.394 309.88 222.954 308.464 222.616 307.013C221.962 304.206 221.723 301.313 221.681 298.434C221.609 293.102 221.981 286.98 226.155 283.118C226.721 282.598 225.878 281.766 225.316 282.279C220.443 286.699 220.158 293.824 220.405 299.968C220.546 303.454 221.013 306.979 222.167 310.283C222.741 311.923 223.967 316.139 225.938 316.363C226.28 316.405 226.626 316.025 226.603 315.698C226.599 315.641 226.595 315.577 226.592 315.52Z" fill="#B2E38A"/>
<path d="M217.933 315.444C212.418 305.03 211.131 293.603 214.898 282.343C215.141 281.606 214.01 281.318 213.748 282.024C209.703 292.908 210.656 306.151 216.809 316.104C217.249 316.818 218.328 316.188 217.933 315.444Z" fill="#D14512"/>
<path d="M208.2 316.089C201.698 305.851 201.448 292.912 207.759 282.491C208.147 281.857 207.159 281.284 206.768 281.91C200.316 292.286 200.008 306.55 207.121 316.72C207.577 317.369 208.637 316.777 208.2 316.089Z" fill="#B2E38A"/>
<path d="M242.067 260.385C233.758 255.589 195.922 254.29 199.924 267.126C203.923 279.966 225.323 284.174 225.323 284.174C231.411 286.152 241.566 281.36 242.067 260.385Z" fill="#1586A3"/>
<path d="M31.7895 195.114C31.6756 195.114 31.5616 195.072 31.4743 194.989C31.2844 194.814 31.2768 194.518 31.4515 194.332C32.4769 193.242 56.5656 167.862 72.645 169.894L80.1872 148.551C80.2707 148.311 80.5365 148.182 80.7796 148.27C81.0227 148.353 81.148 148.619 81.0644 148.862L73.3931 170.562C73.3172 170.771 73.1007 170.9 72.8842 170.866C57.2757 168.439 32.3781 194.7 32.1275 194.966C32.0363 195.065 31.9148 195.114 31.7895 195.114Z" fill="#D99F29"/>
<path d="M199.924 171.382C199.769 171.382 199.62 171.303 199.533 171.166C198.937 170.224 184.939 148.03 182.907 137.283C182.861 137.032 183.025 136.789 183.275 136.74C183.537 136.694 183.773 136.858 183.818 137.112C185.816 147.685 200.171 170.44 200.315 170.668C200.452 170.885 200.388 171.173 200.171 171.31C200.095 171.356 200.008 171.382 199.924 171.382Z" fill="#D99F29"/>
<path d="M238.684 263.643L227.553 257.218C214.033 256.189 197.315 258.342 199.898 267.035L224.651 279.791L238.684 263.643Z" fill="#FF926F"/>
<path d="M129.493 128.032L129.136 126.938C128.684 125.56 129.546 124.101 130.97 123.828L138.577 122.362C140.062 122.077 141.44 123.216 141.44 124.728V126.524L129.493 128.032Z" fill="#D14512"/>
<path d="M238.509 262.899C252.454 266.894 269.498 296.6 266.395 305.642C263.289 314.684 256.487 314.377 247.84 306.565C239.39 298.928 230.249 288.085 223.356 279.522C220.082 275.454 238.509 262.899 238.509 262.899Z" fill="#FBE0A1"/>
<path d="M268.195 288.214C258.055 291.64 249.856 300.447 246.609 310.556C246.039 312.333 248.774 313.047 249.385 311.319C252.746 301.867 259.783 294.879 268.974 291.04C270.66 290.337 270.029 287.595 268.195 288.214Z" fill="#D14512"/>
<path d="M267.06 279.745C260.923 281.637 255.276 285.351 250.798 289.919C248.58 292.187 246.617 294.708 244.984 297.424C244.277 298.597 241.49 302.372 242.728 303.671C243.172 304.138 244.038 303.508 243.639 302.964C243.29 302.486 245.086 299.774 245.375 299.254C245.998 298.145 246.674 297.07 247.395 296.026C249.006 293.698 250.874 291.552 252.94 289.616C257.136 285.67 262.02 282.936 267.39 280.93C268.115 280.657 267.831 279.51 267.06 279.745Z" fill="#B2E38A"/>
<path d="M262.897 272.944C256.665 274.85 251.303 279.107 246.609 283.494C242.428 287.405 237.153 291.807 236.511 297.86C236.431 298.635 237.62 298.612 237.715 297.86C238.448 292.061 244.027 287.591 248.079 283.866C252.617 279.696 257.474 276.366 263.216 274.095C263.915 273.821 263.653 272.712 262.897 272.944Z" fill="#D14512"/>
<path d="M256.601 270.115C245.379 273.035 233.876 280.722 231.445 292.779C231.301 293.482 232.345 293.877 232.531 293.148C235.585 281.204 245.728 274.79 256.852 271.3C257.581 271.068 257.364 269.917 256.601 270.115Z" fill="#B2E38A"/>
<path d="M254.277 262.713C248.212 264.654 242.079 267.232 237.142 271.33C234.544 273.487 232.288 276.039 230.067 278.572C228.058 280.855 226.186 283.171 225.088 286.035C224.853 286.642 225.878 287.079 226.148 286.483C228.552 281.174 233.325 276.248 237.734 272.492C242.645 268.307 248.653 266.135 254.604 263.894C255.325 263.621 255.04 262.47 254.277 262.713Z" fill="#D14512"/>
<path d="M166.942 85.889C166.778 85.889 166.623 85.8054 166.539 85.6573C166.41 85.437 166.482 85.1522 166.706 85.0231C172.706 81.5596 180.735 81.1267 181.073 81.1115C181.346 81.0925 181.547 81.2938 181.559 81.552C181.574 81.8102 181.377 82.0267 181.122 82.0381C181.039 82.0419 172.972 82.4786 167.169 85.8282C167.097 85.87 167.017 85.889 166.942 85.889Z" fill="#F77E56"/>
<path d="M158.359 100.142C158.23 100.142 158.108 100.092 158.017 99.9935C157.842 99.8074 157.854 99.5112 158.04 99.3365C159.202 98.258 165.054 92.8387 166.015 92.4513C166.254 92.3564 166.52 92.4665 166.619 92.7058C166.714 92.945 166.6 93.2147 166.364 93.3134C165.806 93.5413 161.986 96.9364 158.674 100.02C158.583 100.1 158.473 100.142 158.359 100.142Z" fill="#F77E56"/>
<path d="M162.271 104.482C162.191 104.482 162.107 104.46 162.035 104.418C161.815 104.285 161.743 104 161.872 103.78C162.62 102.534 168.203 97.4985 168.837 96.9251C169.027 96.758 169.319 96.7732 169.494 96.963C169.665 97.1529 169.65 97.4454 169.456 97.6162C167.762 99.1429 163.239 103.305 162.669 104.258C162.582 104.403 162.43 104.482 162.271 104.482Z" fill="#F77E56"/>
</svg>
